PathFileType	4	(X/Y/Z)	 s02c0101.trc
DataRate	CameraRate	NumFrames	NumMarkers	Units	OrigDataRate	OrigDataStartFrame	OrigNumFrames
200	200	4	51	mm	200	1001	2000
Frame#	Time	racr			lacr			c7			jug			rlel			rdr			llel			ldr			s2			lic			ric			lasi			rasi			rpsi			lpsi			rgt			lgt			rth1			rth2			rth3			rth4			rlfc			rmfc			rsh1			rsh2			rsh3			rsh4			rlmal			rmmal			rtoe			rmt5			rmt1			lth1			lth2			lth4			lth3			llfc			lmfc			lsh1			lsh2			lsh3			lsh4			llmal			lmmal			lcal			ltoe			lmt1			lmt5			SBIKE			LBIKE			RBIKE			
		X1	Y1	Z1	X2	Y2	Z2	X3	Y3	Z3	X4	Y4	Z4	X5	Y5	Z5	X6	Y6	Z6	X7	Y7	Z7	X8	Y8	Z8	X9	Y9	Z9	X10	Y10	Z10	X11	Y11	Z11	X12	Y12	Z12	X13	Y13	Z13	X14	Y14	Z14	X15	Y15	Z15	X16	Y16	Z16	X17	Y17	Z17	X18	Y18	Z18	X19	Y19	Z19	X20	Y20	Z20	X21	Y21	Z21	X22	Y22	Z22	X23	Y23	Z23	X24	Y24	Z24	X25	Y25	Z25	X26	Y26	Z26	X27	Y27	Z27	X28	Y28	Z28	X29	Y29	Z29	X30	Y30	Z30	X31	Y31	Z31	X32	Y32	Z32	X33	Y33	Z33	X34	Y34	Z34	X35	Y35	Z35	X36	Y36	Z36	X37	Y37	Z37	X38	Y38	Z38	X39	Y39	Z39	X40	Y40	Z40	X41	Y41	Z41	X42	Y42	Z42	X43	Y43	Z43	X44	Y44	Z44	X45	Y45	Z45	X46	Y46	Z46	X47	Y47	Z47	X48	Y48	Z48	X49	Y49	Z49	X50	Y50	Z50	X51	Y51	Z51	
1001	5.0050	513.652403	1263.584870	-117.318678	535.958556	1249.807330	-462.874830	514.976129	1313.135358	-294.802262	463.300372	1179.584242	-297.748339	547.707608	994.155639	-61.199206	718.913323	857.922215	-121.809439	525.860584	985.723766	-577.318022	694.460312	844.299201	-504.229366	2.895593	1111.627082	-332.100024	143.995332	1118.894919	-468.109440	121.133461	1129.308724	-184.863549	184.221996	1088.345129	-440.610169	176.160121	1104.893382	-205.265217	19.137647	1164.662655	-290.067958	26.420172	1154.559839	-372.086405	106.245872	1043.153333	-148.854969	99.106258	1018.918209	-501.692880	197.084159	998.238960	-135.829988	279.787578	967.279068	-138.539819	335.816826	906.623881	-116.686523	297.678336	990.598457	-162.788849	430.179228	796.321096	-151.609309	424.712258	778.084927	-260.128529	425.137530	684.591034	-132.347835	426.907917	596.882750	-150.944238	388.749027	519.577158	-147.208554	440.251577	596.983267	-188.460655	350.992153	409.227338	-152.007026	355.789685	425.222543	-234.345371	565.519238	363.699902	-184.744083	456.583318	343.633545	-125.779981	482.759483	361.900509	-233.075604	220.100086	939.543375	-503.996587	295.812989	897.218321	-497.624156	317.466806	920.212116	-479.121414	340.879501	820.604039	-500.101160	399.635007	740.521906	-477.051280	394.250208	707.939092	-373.251442	342.691110	653.629390	-497.447052	297.779081	581.247379	-482.422496	220.190683	535.480553	-489.050212	311.981100	570.100630	-445.347370	131.217544	470.661162	-481.993950	144.194999	456.508074	-403.534664	52.546596	475.821305	-440.416968	234.444866	253.548464	-435.711816	178.273897	313.264565	-391.347923	147.794699	314.569221	-500.174330	-161.796271	861.583021	-308.063436	37.465289	86.286333	-514.315650	34.019380	83.126106	-114.245169	
1002	5.0100	514.705407	1262.627611	-117.363088	535.576692	1249.123920	-463.070799	514.765395	1312.440526	-294.361612	463.504783	1179.067706	-297.244543	548.474178	993.710799	-59.852397	718.844391	857.600243	-121.494942	526.331872	985.183156	-577.323042	694.697640	844.057416	-503.938060	3.408893	1109.832998	-331.285140	143.912412	1117.820292	-466.982650	122.003711	1127.533188	-183.485198	184.411580	1087.642084	-439.425699	177.100882	1103.300655	-203.901558	20.048867	1161.565854	-288.347361	26.417340	1152.665796	-372.047170	106.391847	1040.438592	-148.080951	100.759899	1017.882518	-500.945143	196.841819	993.945376	-134.539849	278.910750	961.387286	-137.485404	333.730894	899.526948	-115.929576	297.378001	984.737821	-161.209431	427.085438	788.681555	-149.776457	420.805236	770.288134	-259.605595	423.150642	676.460168	-131.756495	425.951705	588.536096	-150.473873	388.968257	510.847857	-146.438612	438.714779	589.194280	-188.209627	352.466647	399.468814	-151.227582	359.139424	417.118453	-233.652371	566.652393	351.448926	-184.852114	457.616893	332.587235	-125.668382	484.138633	350.303884	-233.272798	222.899535	940.843779	-503.165800	299.510693	900.229390	-496.345859	320.437763	923.580800	-477.370969	346.448951	824.971288	-499.182498	405.917860	745.714412	-475.525284	399.543051	712.457759	-371.520654	348.039095	659.848016	-495.983546	301.539886	588.481863	-481.078319	222.930371	544.457190	-488.361447	315.455594	577.068127	-444.047635	132.752500	481.673508	-481.177319	145.583691	466.932471	-403.025670	53.762229	487.484538	-440.048888	234.012506	263.598972	-435.683606	178.293121	323.864425	-391.137264	147.922343	325.625063	-499.939032	-161.828290	861.628336	-307.793245	37.476846	86.317291	-514.302514	34.015150	83.142619	-114.231051	
1003	5.0150	515.580380	1261.246407	-117.890789	535.144680	1248.480926	-463.330453	514.683203	1312.152373	-294.247082	463.601971	1178.464109	-296.895243	549.269658	993.301982	-58.376530	718.837201	857.342370	-120.957919	526.600157	984.826749	-577.623364	694.975014	843.979580	-503.573603	3.939108	1108.155943	-330.278289	143.823270	1116.770267	-465.693004	122.905143	1125.891115	-181.952404	184.598735	1087.044605	-438.169291	178.125626	1101.762689	-202.419476	20.795412	1158.481535	-286.841222	27.207209	1151.229821	-372.921967	106.698977	1038.002781	-147.000983	102.354183	1017.007306	-500.038821	196.840839	990.129966	-133.213485	278.197900	955.885850	-136.397970	331.738125	892.879930	-115.160018	297.195182	979.017258	-159.892005	423.491911	780.582257	-150.104135	417.065118	762.622313	-258.760250	420.817553	668.155567	-131.337796	425.122449	580.129104	-150.354276	389.294645	501.949745	-146.215596	436.831661	581.342311	-188.049010	353.377175	390.151279	-150.621500	361.271127	409.189623	-232.113698	567.266444	339.047419	-185.287675	458.202547	321.668678	-125.767202	484.627623	339.157397	-233.015584	225.517707	942.301698	-502.221620	303.017487	903.514374	-495.072380	323.266274	927.223549	-475.722631	351.826316	829.168157	-497.772067	412.157945	751.371881	-473.541545	402.244200	719.306701	-369.451962	353.253845	666.348083	-494.502467	305.363653	595.957284	-479.739471	225.868362	553.407132	-487.203226	318.898063	584.136466	-442.576771	134.521353	492.641543	-480.340564	147.124700	477.609438	-402.165585	55.102318	498.906724	-439.703156	234.254291	274.048714	-435.628749	179.017880	334.756617	-391.154379	148.676525	336.673009	-499.747042	-161.786091	861.600024	-307.906751	37.464524	86.326364	-514.309804	34.026871	83.134293	-114.241283	
1004	5.0200	516.609114	1260.365904	-117.950116	534.658260	1247.953292	-463.845037	514.629679	1311.809870	-294.352460	463.663130	1178.150224	-296.600611	550.056202	992.963895	-56.885242	718.873671	857.027928	-120.354218	526.924373	984.367600	-577.776091	695.217642	844.007722	-503.176985	4.601892	1106.533776	-328.857498	143.685233	1115.893854	-464.382072	123.848723	1124.441130	-180.347780	184.710588	1086.422365	-436.751844	179.237836	1100.383233	-200.746450	22.407616	1155.320596	-285.369162	26.029373	1149.697730	-371.236171	107.170566	1035.794761	-145.786138	103.856470	1016.300778	-498.976118	197.137337	986.715357	-132.016541	277.732658	950.889383	-135.379383	329.938039	886.652892	-114.369211	297.128716	973.626862	-158.871014	419.620031	772.457938	-149.694785	412.895089	753.154870	-259.183763	418.210692	659.659853	-131.009067	423.644007	571.817148	-150.031849	388.746628	493.127630	-145.641296	434.833756	573.258710	-187.811709	353.967079	381.141646	-150.058187	361.546731	395.073675	-231.337647	567.432502	326.088889	-185.921040	458.231288	310.801821	-125.834576	484.616728	327.898444	-232.953866	227.999548	944.031356	-501.186727	306.389922	907.031167	-493.785158	325.941675	931.092389	-474.075103	356.854928	833.785004	-496.336587	418.254793	757.177037	-471.845214	406.394744	724.145152	-370.019125	358.405256	673.150557	-493.045694	309.126729	603.622386	-478.411163	228.967025	562.433797	-486.038666	322.435064	591.428061	-441.196832	136.528411	503.538956	-479.347850	148.876332	488.197783	-401.365075	56.970532	510.205701	-439.385622	235.207835	284.496769	-435.468111	180.544359	345.707399	-391.069940	150.030804	347.756392	-499.484690	-161.876400	861.588202	-307.974632	37.457879	86.289961	-514.323739	34.013314	83.116257	-114.227925	
